# xmcd
#
# Track frame offsets:
#	150
#	11940
#	28160
#	44797
#	59177
#	75002
#	87762
#	103757
#	120292
#	136285
#
# Disc length: 2223 seconds
#
# Revision: 0
# Processed by: cddbd v1.5.1PL2 Copyright (c) Steve Scherf et al.
# Submitted via: audiograbber 1.83.01
#
DISCID=8108ad0a
DTITLE=Ladell McLin - Stand out
DYEAR=1900
DGENRE=
TTITLE0=Rich man`s lounge
TTITLE1=Hooked
TTITLE2=Stand out
TTITLE3=House I built
TTITLE4=Mona Lisa
TTITLE5=Comin`  at ya
TTITLE6=Play the blues 4 u
TTITLE7=TNT
TTITLE8=Cold in China
TTITLE9=Universe
EXTD=
EXTT0=
EXTT1=
EXTT2=
EXTT3=
EXTT4=
EXTT5=
EXTT6=
EXTT7=
EXTT8=
EXTT9=
PLAYORDER=
